<?xml version="1.0" standalone="no"?>
<!DOCTYPE svg PUBLIC "-//W3C//DTD SVG 20010904//EN"
 "http://www.w3.org/TR/2001/REC-SVG-20010904/DTD/svg10.dtd">
<svg version="1.0" xmlns="http://www.w3.org/2000/svg"
 width="648.000000pt" height="648.000000pt" viewBox="0 0 648.000000 648.000000"
 preserveAspectRatio="xMidYMid meet">
<metadata>
Created by potrace 1.14, written by Peter Selinger 2001-2017
</metadata>
<g transform="translate(0.000000,648.000000) scale(0.100000,-0.100000)"
fill="#000000" stroke="none">
<path d="M5390 4586 c-3 -2 -36 -7 -75 -10 -38 -4 -77 -9 -85 -11 -8 -2 -40
-6 -70 -9 -30 -4 -89 -10 -130 -16 -41 -5 -99 -12 -129 -15 -30 -4 -61 -8 -70
-10 -9 -1 -43 -6 -76 -9 -33 -4 -71 -9 -85 -11 -25 -4 -70 -9 -165 -20 -75 -9
-207 -26 -235 -30 -14 -2 -70 -9 -125 -15 -55 -6 -111 -13 -125 -15 -53 -8
-107 -15 -150 -19 -25 -3 -99 -12 -165 -20 -66 -9 -140 -18 -165 -21 -54 -6
-113 -14 -160 -20 -19 -3 -55 -8 -80 -10 -25 -3 -61 -7 -80 -10 -51 -7 -119
-15 -170 -21 -25 -2 -56 -7 -70 -9 -14 -2 -52 -7 -85 -11 -33 -3 -68 -8 -77
-9 -9 -2 -48 -7 -85 -10 -37 -4 -76 -9 -87 -11 -10 -2 -44 -6 -75 -9 -31 -4
-67 -8 -81 -10 -14 -2 -65 -9 -115 -15 -116 -14 -162 -19 -205 -25 -19 -3 -55
-7 -80 -10 -25 -3 -54 -7 -65 -9 -11 -2 -51 -7 -90 -11 -38 -4 -77 -9 -86 -10
-9 -2 -40 -6 -70 -9 -30 -4 -70 -9 -89 -11 -19 -3 -55 -8 -80 -10 -25 -3 -61
-7 -80 -10 -42 -5 -348 -44 -405 -51 -22 -2 -56 -6 -75 -9 -95 -12 -119 -15
-165 -20 -27 -3 -61 -7 -75 -9 -14 -3 -70 -10 -125 -16 -55 -6 -111 -13 -125
-15 -14 -2 -65 -9 -115 -15 -49 -6 -106 -13 -125 -15 -19 -3 -60 -7 -90 -10
-30 -4 -62 -8 -70 -10 -8 -2 -44 -7 -80 -10 -67 -7 -83 -12 -76 -23 2 -4 7
-25 10 -46 7 -40 51 -252 86 -406 10 -47 21 -96 24 -110 2 -14 14 -69 26 -124
12 -54 23 -108 26 -120 2 -11 20 -95 40 -186 20 -91 38 -174 40 -186 2 -11 31
-146 64 -300 33 -153 63 -292 66 -309 2 -16 9 -43 13 -60 5 -16 15 -61 22 -99
l13 -68 161 7 c88 3 198 8 245 10 84 4 249 12 450 20 154 7 341 15 455 20 55
2 159 7 230 10 72 3 173 8 225 10 52 3 151 7 220 10 69 2 175 7 235 10 105 6
163 8 465 20 74 2 176 7 225 10 90 5 250 12 445 20 130 5 335 14 460 20 52 3
156 7 230 10 74 3 180 8 235 10 55 3 156 7 225 10 69 3 170 7 225 10 55 3 159
7 230 10 72 3 173 7 225 10 115 5 275 13 470 21 80 4 168 8 195 9 28 1 83 3
123 4 65 1 71 3 63 19 -12 21 2 -9 -250 582 -116 272 -218 507 -226 522 -8 14
-15 31 -15 36 0 6 -16 45 -35 86 -19 42 -35 78 -35 81 0 2 -11 28 -24 57 -13
29 -70 161 -126 293 -56 132 -111 260 -122 285 -11 25 -61 142 -112 260 -72
169 -96 216 -112 218 -11 2 -22 1 -24 -2z"/>
</g>
</svg>
